PathFileType	4	(X/Y/Z)	 s07c0201.trc
DataRate	CameraRate	NumFrames	NumMarkers	Units	OrigDataRate	OrigDataStartFrame	OrigNumFrames
200	200	4	48	mm	200	1251	2000
Frame#	Time	racr			lacr			c7			jug			rlel			rdr			llel			ldr			s2			lic			ric			lasi			rasi			rpsi			lpsi			rgt			lgt			rth1			rth2			rth3			rth4			rlfc			rmfc			rsh1			rsh2			rsh3			rsh4			rlmal			rcal			rtoe			rmt5			lth1			lth2			lth4			lth3			llfc			lmfc			lsh1			lsh2			lsh3			lsh4			llmal			lcal			ltoe			lmt5			SBIKE			LBIKE			RBIKE			
		X1	Y1	Z1	X2	Y2	Z2	X3	Y3	Z3	X4	Y4	Z4	X5	Y5	Z5	X6	Y6	Z6	X7	Y7	Z7	X8	Y8	Z8	X9	Y9	Z9	X10	Y10	Z10	X11	Y11	Z11	X12	Y12	Z12	X13	Y13	Z13	X14	Y14	Z14	X15	Y15	Z15	X16	Y16	Z16	X17	Y17	Z17	X18	Y18	Z18	X19	Y19	Z19	X20	Y20	Z20	X21	Y21	Z21	X22	Y22	Z22	X23	Y23	Z23	X24	Y24	Z24	X25	Y25	Z25	X26	Y26	Z26	X27	Y27	Z27	X28	Y28	Z28	X29	Y29	Z29	X30	Y30	Z30	X31	Y31	Z31	X32	Y32	Z32	X33	Y33	Z33	X34	Y34	Z34	X35	Y35	Z35	X36	Y36	Z36	X37	Y37	Z37	X38	Y38	Z38	X39	Y39	Z39	X40	Y40	Z40	X41	Y41	Z41	X42	Y42	Z42	X43	Y43	Z43	X44	Y44	Z44	X45	Y45	Z45	X46	Y46	Z46	X47	Y47	Z47	X48	Y48	Z48	
1251	6.2550	433.329094	1461.328591	-67.701536	436.174997	1435.959717	-358.073271	401.722785	1514.039460	-213.927024	355.724442	1366.794602	-214.794900	479.946047	1140.694910	73.063130	692.327472	951.453935	-34.876173	441.768013	1118.432444	-509.091507	680.909727	944.638977	-421.507690	-141.081396	1204.590214	-223.426742	7.086504	1286.046520	-355.571782	17.376460	1263.572364	-64.331910	49.866015	1215.215277	-328.379941	41.419777	1203.240434	-77.817737	-118.421066	1243.443602	-168.372903	-112.328524	1260.473175	-273.620718	-35.499380	1108.328266	-35.378052	-7.742465	1144.799466	-402.843262	45.626722	969.510281	-25.252994	98.507255	898.881739	-32.913374	110.813539	814.447152	-37.439996	130.324403	913.471579	-46.932741	165.569391	689.245292	-75.750881	152.385555	673.436931	-174.893953	145.812345	549.213734	-47.359100	161.212393	463.216919	-67.308649	135.220249	380.065402	-63.356091	174.949302	466.398880	-105.652314	120.900608	238.327417	-67.278632	61.936249	190.005685	-92.304987	351.437052	206.616857	-122.233848	284.629074	161.821417	-49.615670	98.944242	1093.996249	-402.246701	187.183205	1091.513335	-398.806191	197.109762	1124.073903	-385.410432	263.665964	1045.023166	-398.195661	417.721996	953.792544	-364.236236	408.146444	931.394471	-262.741891	327.421717	837.603601	-384.717770	285.644868	763.185729	-371.853405	209.961098	715.158859	-381.391904	289.591224	761.083307	-330.345135	113.348750	623.926135	-389.980646	38.146547	645.967084	-352.850583	213.724125	414.911738	-351.482418	143.655692	460.464586	-413.305020	-260.112281	977.253276	-229.482258	-76.397779	84.248346	-437.115526	-82.927455	79.230808	-39.641875	
1252	6.2600	435.862805	1461.231733	-70.496225	433.908619	1437.298762	-361.066073	401.633058	1515.513438	-215.611975	355.331515	1368.403945	-216.988975	480.572615	1140.801915	72.910904	692.674108	951.798506	-35.117393	440.594290	1117.990253	-507.675056	680.798272	944.683088	-421.279759	-139.941214	1205.085396	-222.447734	6.078358	1288.300453	-352.795986	20.038795	1261.444023	-62.200751	50.535369	1217.571984	-326.915538	43.396259	1201.671610	-76.205477	-117.204821	1242.953174	-165.366845	-112.259220	1261.338738	-269.879561	-34.198826	1106.779576	-34.366404	-7.115557	1148.990323	-402.003764	44.362171	967.332471	-24.046026	96.320684	895.773110	-31.307680	107.198658	811.179713	-35.595074	128.332769	909.836915	-44.654257	160.759583	685.602227	-75.344670	147.716302	670.236762	-174.813515	139.844842	545.844995	-47.473915	154.502163	459.903055	-67.470481	127.774214	377.005507	-63.609508	168.071963	462.766001	-105.463090	112.508843	235.592809	-67.651216	53.018153	187.866399	-92.760982	342.679845	200.508416	-122.316156	273.007376	154.999419	-49.623059	99.952733	1100.738146	-401.216947	188.216340	1099.982751	-397.343724	197.445773	1132.320893	-382.901346	265.640763	1055.010274	-397.651138	421.864426	965.826631	-363.182029	413.500150	942.520346	-261.597809	334.738462	847.769243	-384.047627	293.703106	772.654037	-371.714033	218.338480	724.030712	-381.628471	296.317620	768.434918	-333.556916	122.644689	629.114681	-390.138886	47.168257	650.795432	-352.917524	221.723112	419.617485	-350.291801	153.378985	465.958913	-413.484400	-260.005770	977.351064	-229.462256	-76.382306	84.321919	-437.109223	-82.948993	79.416701	-39.604366	
1253	6.2650	438.335963	1460.961798	-73.322733	431.470915	1438.656852	-364.140902	401.492266	1516.400002	-217.048082	355.296022	1369.297169	-218.756871	481.060466	1140.734093	72.809020	693.060650	952.207638	-35.102347	439.273062	1117.496356	-506.291399	680.668667	944.850294	-421.188711	-139.013190	1205.478652	-219.860375	5.271729	1290.553467	-350.230355	23.132575	1259.286144	-60.563762	50.205620	1219.274573	-324.826459	45.361363	1200.243356	-74.757312	-116.134704	1242.631509	-162.558429	-111.991897	1262.340650	-266.724294	-32.918803	1105.363798	-33.522509	-6.620739	1152.953974	-401.098262	43.471508	965.424252	-22.915234	94.314064	893.253352	-29.902770	104.147573	808.461446	-34.084028	126.617057	906.910988	-43.090167	156.708301	682.471168	-75.199243	144.174791	667.404350	-174.318367	134.209240	543.300848	-47.713597	148.065312	457.094195	-67.784307	120.394473	374.478250	-64.007204	161.848090	459.960579	-105.628240	103.966648	233.562899	-67.969871	43.826668	186.635949	-93.198352	333.845625	194.663410	-122.499756	264.240389	151.148933	-49.955525	100.681863	1106.877236	-400.039823	188.940822	1107.621923	-395.834389	197.551115	1139.765312	-380.602643	267.195262	1064.041643	-397.018364	424.276918	976.218002	-363.050303	418.007405	952.761783	-260.261618	340.905196	856.661853	-383.039601	300.568975	781.224911	-371.509604	225.837169	731.755577	-381.600866	305.335056	778.560665	-329.843972	131.393448	633.989444	-390.332841	55.561219	654.746826	-353.068894	233.265093	425.622570	-350.304506	163.436379	470.812305	-413.251707	-259.861003	977.464624	-229.371500	-76.330406	84.387297	-437.125777	-82.921862	79.454431	-39.620622	
1254	6.2700	440.787499	1460.527427	-76.129253	428.853783	1440.032702	-367.127600	401.538491	1516.990716	-218.464158	355.188494	1369.974633	-220.353784	481.286943	1140.517415	72.671726	693.413023	952.671940	-34.886088	437.806411	1117.160632	-505.025979	680.535029	945.142913	-421.232275	-138.358329	1206.043263	-217.156531	4.560539	1292.747906	-347.740433	25.408607	1257.445537	-58.727619	49.393238	1220.690998	-322.269789	47.101406	1199.016961	-73.399720	-114.973980	1242.550370	-159.922836	-112.341615	1264.055956	-262.998665	-31.568014	1104.062542	-32.809645	-6.383147	1156.616385	-400.077462	42.781264	963.930365	-22.097698	92.655864	891.068810	-28.834013	101.236917	806.145419	-33.271270	125.199974	904.428496	-41.593697	153.140434	679.911198	-75.288473	140.732114	665.360027	-174.772942	129.277759	541.325489	-48.067079	142.074327	454.998142	-68.275625	113.501275	372.687594	-64.592910	156.033593	457.658408	-106.021472	95.314394	231.957026	-68.482763	34.664308	186.322405	-93.582064	324.648154	189.485821	-122.548921	253.653574	148.417895	-49.123896	101.183022	1112.161467	-398.713188	189.413295	1114.363979	-394.437113	197.553693	1146.274851	-378.553783	268.339121	1071.982254	-396.277197	427.967454	986.040447	-360.442771	421.445886	961.613513	-258.822023	345.688559	864.444271	-381.981970	306.392891	788.221555	-370.787218	232.295399	737.899725	-381.494192	310.787217	785.631074	-329.446894	140.716777	637.771836	-388.991588	63.101470	657.556165	-353.384797	243.789423	431.014653	-350.230067	173.867464	475.093941	-412.879029	-259.781068	977.524730	-229.263319	-76.381130	84.443121	-437.114333	-82.891383	79.467517	-39.624717	
